<?xml version="1.0" encoding="UTF-8" standalone="no"?>
<svg width="43px" height="40px" viewBox="0 0 43 40" version="1.1" xmlns="http://www.w3.org/2000/svg" xmlns:xlink="http://www.w3.org/1999/xlink">
    <!-- Generator: Sketch 42 (36781) - http://www.bohemiancoding.com/sketch -->
    <title>memes</title>
    <desc>Created with Sketch.</desc>
    <defs></defs>
    <g id="Page-1" stroke="none" stroke-width="1" fill="none" fill-rule="evenodd">
        <g id="memes" fill-rule="nonzero" fill="#6666FF">
            <g id="Artboard">
                <g id="Page-1">
                    <g id="Artboard">
                        <path d="M10.9487179,27.7179487 L10.9487179,20.6923077 L7.56410256,23.7948718 L4.20512821,20.6923077 L4.20512821,27.7179487 L5.82051282,27.7179487 L5.82051282,24.1282051 L7.56410256,25.8205128 L9.30769231,24.1282051 L9.30769231,27.7435897 L10.9487179,27.7435897 L10.9487179,27.7179487 Z M17.4871795,27.7179487 L17.4871795,26.2051282 L14.2051282,26.2051282 L14.2051282,25.1025641 L16.9487179,25.1025641 L16.9487179,23.6153846 L14.2051282,23.6153846 L14.2051282,22.5641026 L17.4358974,22.5641026 L17.4358974,21.0512821 L12.6153846,21.0512821 L12.6153846,27.7179487 L17.4871795,27.7179487 Z M25.6666667,27.7179487 L25.6666667,20.6923077 L22.2820513,23.7948718 L18.8974359,20.6923077 L18.8974359,27.7179487 L20.5128205,27.7179487 L20.5128205,24.1282051 L22.2564103,25.8205128 L24,24.1282051 L24,27.7435897 L25.6666667,27.7435897 L25.6666667,27.7179487 Z M32.2051282,27.7179487 L32.2051282,26.2051282 L28.9230769,26.2051282 L28.9230769,25.1025641 L31.6666667,25.1025641 L31.6666667,23.6153846 L28.9230769,23.6153846 L28.9230769,22.5641026 L32.1282051,22.5641026 L32.1282051,21.0512821 L27.3076923,21.0512821 L27.3076923,27.7179487 L32.2051282,27.7179487 Z M38.025641,26.5128205 C38.1538462,26.2564103 38.2051282,26 38.2051282,25.7179487 C38.2051282,25.3589744 38.1282051,25.0512821 37.974359,24.7948718 C37.8205128,24.5384615 37.6153846,24.3333333 37.3846154,24.1794872 C37.1538462,24.025641 36.8974359,23.8717949 36.6153846,23.7692308 C36.3333333,23.6666667 36.0769231,23.5641026 35.8461538,23.4871795 C35.6153846,23.3846154 35.4102564,23.3076923 35.2564103,23.2307692 C35.1025641,23.1538462 35.025641,23.025641 35.025641,22.8974359 C35.025641,22.7435897 35.1025641,22.6410256 35.2307692,22.5641026 C35.3589744,22.4871795 35.5384615,22.4358974 35.7692308,22.4358974 C36.025641,22.4358974 36.2820513,22.4615385 36.5128205,22.5128205 C36.7435897,22.5641026 36.9487179,22.6153846 37.1282051,22.6923077 C37.3333333,22.7692308 37.5384615,22.8461538 37.6923077,22.9487179 L37.6923077,21.3589744 C37.5384615,21.2820513 37.3589744,21.2051282 37.1538462,21.1538462 C36.974359,21.1025641 36.7948718,21.0512821 36.5384615,21 C36.3076923,20.9487179 36.0512821,20.9487179 35.7692308,20.9487179 C35.4615385,20.9487179 35.1538462,21 34.8717949,21.0769231 C34.5897436,21.1538462 34.3333333,21.2820513 34.1025641,21.4358974 C33.8717949,21.5897436 33.6923077,21.8205128 33.5641026,22.0512821 C33.4358974,22.3076923 33.3589744,22.5897436 33.3589744,22.9487179 C33.3589744,23.3076923 33.4358974,23.5897436 33.5897436,23.8461538 C33.7435897,24.0769231 33.9487179,24.2820513 34.1794872,24.4358974 C34.4102564,24.5897436 34.6666667,24.7179487 34.9230769,24.8205128 C35.1794872,24.9230769 35.4358974,25.025641 35.6666667,25.1025641 C35.8974359,25.1794872 36.1025641,25.2820513 36.2564103,25.3846154 C36.4102564,25.4871795 36.4871795,25.6153846 36.4871795,25.7692308 C36.4871795,25.8717949 36.4615385,25.9487179 36.4102564,26.025641 C36.3589744,26.1025641 36.2820513,26.1538462 36.1794872,26.2051282 C36.0769231,26.2564103 35.974359,26.2820513 35.8717949,26.3076923 C35.7692308,26.3333333 35.6410256,26.3333333 35.5384615,26.3333333 C35.2307692,26.3333333 34.9487179,26.3076923 34.6923077,26.2307692 C34.4358974,26.1794872 34.2051282,26.1025641 34,26 C33.7692308,25.8974359 33.5641026,25.7948718 33.3589744,25.6666667 L33.3589744,27.3076923 C33.5384615,27.4102564 33.7435897,27.5128205 33.974359,27.5641026 C34.1794872,27.6153846 34.4102564,27.6923077 34.6666667,27.7435897 C34.9230769,27.7948718 35.2051282,27.8205128 35.5384615,27.8205128 C35.974359,27.8205128 36.3333333,27.7692308 36.6666667,27.6666667 C37,27.5641026 37.2820513,27.4102564 37.5128205,27.2051282 C37.7435897,27 37.9230769,26.7692308 38.025641,26.5128205 L38.025641,26.5128205 Z M42.4102564,0 L42.4102564,39.7948718 L0,39.7948718 L0,0 C0,0 21,12.6410256 21.2051282,12.7692308 L42.4102564,0 Z" id="Page-1"></path>
                    </g>
                </g>
            </g>
        </g>
    </g>
</svg>